<mxfile host="Electron" modified="2025-03-02T07:59:46.877Z" agent="Mozilla/5.0 (Windows NT 10.0; Win64; x64) AppleWebKit/537.36 (KHTML, like Gecko) draw.io/24.1.0 Chrome/120.0.6099.109 Electron/28.1.0 Safari/537.36" etag="VvNBjZGtBMLhFVYra43d" version="24.1.0" type="device" pages="2">
  <diagram name="Page-1" id="SE0Pd3vN2Rl-mlT4ESwE">
    <mxGraphModel dx="2150" dy="1035" grid="1" gridSize="10" guides="1" tooltips="1" connect="1" arrows="1" fold="1" page="1" pageScale="1" pageWidth="850" pageHeight="1100" math="0" shadow="0">
      <root>
        <mxCell id="0" />
        <mxCell id="1" parent="0" />
        <mxCell id="UxKhiTpBqrd-aujqjKo_-1" value="Input:&lt;br&gt;- numberOfCourses: Integer ([1,2000])&lt;div&gt;- prerequisites: matrix (m,2)&lt;/div&gt;" style="text;html=1;align=left;verticalAlign=top;whiteSpace=wrap;rounded=0;" parent="1" vertex="1">
          <mxGeometry x="40" y="120" width="250" height="120" as="geometry" />
        </mxCell>
        <mxCell id="UxKhiTpBqrd-aujqjKo_-2" value="Ouput:&lt;br&gt;- Boolean:&lt;br&gt;+ true =&amp;gt; can finish&lt;div&gt;+ false =&amp;gt; can not finish&lt;/div&gt;" style="text;html=1;align=left;verticalAlign=top;whiteSpace=wrap;rounded=0;" parent="1" vertex="1">
          <mxGeometry x="480" y="120" width="250" height="120" as="geometry" />
        </mxCell>
        <mxCell id="UxKhiTpBqrd-aujqjKo_-3" value="" style="endArrow=classic;html=1;rounded=0;exitX=1;exitY=0.5;exitDx=0;exitDy=0;" parent="1" source="UxKhiTpBqrd-aujqjKo_-1" target="UxKhiTpBqrd-aujqjKo_-2" edge="1">
          <mxGeometry width="50" height="50" relative="1" as="geometry">
            <mxPoint x="400" y="350" as="sourcePoint" />
            <mxPoint x="450" y="300" as="targetPoint" />
          </mxGeometry>
        </mxCell>
        <mxCell id="aoEvrtgdxkaq1ifQx-zr-1" value="Input:&lt;br&gt;- numberOfCourses = 2&lt;div&gt;- prerequisites = [[1,0],[0,1]]&lt;/div&gt;" style="text;html=1;align=left;verticalAlign=top;whiteSpace=wrap;rounded=0;" parent="1" vertex="1">
          <mxGeometry x="40" y="310" width="250" height="120" as="geometry" />
        </mxCell>
        <mxCell id="aoEvrtgdxkaq1ifQx-zr-2" value="" style="endArrow=classic;html=1;rounded=0;exitX=1;exitY=0.5;exitDx=0;exitDy=0;" parent="1" edge="1">
          <mxGeometry width="50" height="50" relative="1" as="geometry">
            <mxPoint x="290" y="350" as="sourcePoint" />
            <mxPoint x="480" y="350" as="targetPoint" />
          </mxGeometry>
        </mxCell>
        <mxCell id="aoEvrtgdxkaq1ifQx-zr-3" value="Ouput:&lt;br&gt;False&lt;div&gt;&amp;nbsp;1 -&amp;gt; 0 -&amp;gt; 1&lt;/div&gt;&lt;div&gt;&lt;br&gt;&lt;/div&gt;&lt;div&gt;*** Idea:&lt;br&gt;&lt;br&gt;&lt;/div&gt;&lt;div&gt;Topological Sort, DFS&lt;/div&gt;&lt;div&gt;&lt;br&gt;&lt;/div&gt;&lt;div&gt;- What is the topological sort?&lt;/div&gt;&lt;div&gt;&lt;br&gt;&lt;/div&gt;&lt;div&gt;+ Directed Acyclic Graph (DAG)&lt;/div&gt;&lt;div&gt;&lt;br&gt;&lt;/div&gt;&lt;div&gt;u -&amp;gt; v: Order visted: u always visit before v&lt;/div&gt;&lt;div&gt;&lt;br&gt;&lt;/div&gt;&lt;div&gt;? DFS(u)&lt;/div&gt;&lt;div&gt;&lt;br&gt;&lt;/div&gt;&lt;div&gt;??? What is the order for traversal this graph?&lt;/div&gt;&lt;div&gt;&lt;br&gt;&lt;/div&gt;&lt;div&gt;&lt;br&gt;&lt;/div&gt;&lt;div&gt;- We understand that a vertice will have information about number of in-degree and number of out-degree.&lt;/div&gt;&lt;div&gt;&lt;br&gt;&lt;/div&gt;&lt;div&gt;+ If we use number of in-degree for topolical sort, it will effect to time complexity, because when number of nodes very large.&lt;/div&gt;&lt;div&gt;+ So we will choose the number of out-degree for topologcal sort.&lt;/div&gt;&lt;div&gt;&lt;br&gt;&lt;/div&gt;&lt;div&gt;We must use the stack to store order vertice traversal.&lt;/div&gt;&lt;div&gt;&lt;br&gt;&lt;/div&gt;&lt;div&gt;I call it is topo_order_result = [];&lt;/div&gt;&lt;div&gt;&lt;br&gt;&lt;/div&gt;&lt;div&gt;So the actually result is reverse of topo_order_result&lt;/div&gt;&lt;div&gt;&lt;br&gt;&lt;/div&gt;&lt;div&gt;We have some questions:&lt;br&gt;&lt;br&gt;&lt;/div&gt;&lt;div&gt;1) The first question: Why we must travel the graph with decrement order of number of out-degree?&lt;/div&gt;&lt;div&gt;&lt;br&gt;&lt;/div&gt;&lt;div&gt;-&amp;gt; I will explain it by this example: (Expect = true)&lt;/div&gt;&lt;div&gt;&lt;br&gt;&lt;/div&gt;&lt;div&gt;&lt;br&gt;&lt;/div&gt;&lt;div&gt;&lt;br&gt;&lt;/div&gt;&lt;div&gt;&lt;br&gt;&lt;/div&gt;&lt;div&gt;&lt;br&gt;&lt;/div&gt;&lt;div&gt;&lt;br&gt;&lt;/div&gt;&lt;div&gt;&lt;br&gt;&lt;/div&gt;&lt;div&gt;&lt;br&gt;&lt;/div&gt;&lt;div&gt;&lt;br&gt;&lt;/div&gt;&lt;div&gt;- We visit sub_graph_1 before sub_graph_2:&lt;br&gt;+ topo: [5,7,6] -&amp;gt; reverse [6,7,5]&lt;/div&gt;&lt;div&gt;&lt;br&gt;&lt;/div&gt;&lt;div&gt;6 -&amp;gt; 5 -&amp;gt; 7 (At the same we use dfs algothirm, we must mask this node is visited) // [6,5,7]&lt;/div&gt;&lt;div&gt;&lt;br&gt;&lt;/div&gt;&lt;div&gt;6-&amp;gt;7-&amp;gt;5 -&amp;gt; reverse in topo sorted result: [6,7,5]&lt;/div&gt;&lt;div&gt;&lt;br&gt;&lt;/div&gt;&lt;div&gt;After with sub-graph 2: 5 -&amp;gt; 7&lt;/div&gt;&lt;div&gt;&lt;br&gt;&lt;/div&gt;&lt;div&gt;*** -&amp;gt; Return false&lt;/div&gt;&lt;div&gt;&lt;br&gt;&lt;/div&gt;&lt;div&gt;---&amp;gt; It is reason, we must visit from vertices which have number of out degree is least.&lt;/div&gt;&lt;div&gt;&lt;br&gt;&lt;/div&gt;&lt;div&gt;- After then we will visit for sub_group_2:&lt;/div&gt;&lt;div&gt;&lt;br&gt;&lt;/div&gt;&lt;div&gt;&lt;br&gt;&lt;/div&gt;&lt;div&gt;&lt;br&gt;&lt;/div&gt;&lt;div&gt;So for each node we must check it already found on the topo_order_result, if true we return , else we will excute it with dfs algothirm.&lt;/div&gt;&lt;div&gt;&lt;br&gt;&lt;/div&gt;&lt;div&gt;&lt;br&gt;&lt;/div&gt;&lt;div&gt;- Step 1:&amp;nbsp;&lt;/div&gt;&lt;div&gt;dfs(u) {&lt;/div&gt;&lt;div&gt;&lt;br&gt;&lt;/div&gt;&lt;div&gt;}&lt;/div&gt;&lt;div&gt;&lt;br&gt;&lt;/div&gt;&lt;div&gt;build_graph() {&lt;/div&gt;&lt;div&gt;&lt;span style=&quot;white-space: pre;&quot;&gt;&#x9;&lt;/span&gt;&lt;br&gt;&lt;/div&gt;&lt;div&gt;}&lt;/div&gt;" style="text;html=1;align=left;verticalAlign=top;whiteSpace=wrap;rounded=0;" parent="1" vertex="1">
          <mxGeometry x="480" y="320" width="930" height="1400" as="geometry" />
        </mxCell>
        <mxCell id="XAS8zitCqWI3PSzufVN--1" value="1" style="ellipse;whiteSpace=wrap;html=1;aspect=fixed;" parent="1" vertex="1">
          <mxGeometry x="850" y="390" width="30" height="30" as="geometry" />
        </mxCell>
        <mxCell id="XAS8zitCqWI3PSzufVN--3" value="2&lt;span style=&quot;color: rgba(0, 0, 0, 0); font-family: monospace; font-size: 0px; text-align: start; text-wrap: nowrap;&quot;&gt;%3CmxGraphModel%3E%3Croot%3E%3CmxCell%20id%3D%220%22%2F%3E%3CmxCell%20id%3D%221%22%20parent%3D%220%22%2F%3E%3CmxCell%20id%3D%222%22%20value%3D%221%22%20style%3D%22ellipse%3BwhiteSpace%3Dwrap%3Bhtml%3D1%3Baspect%3Dfixed%3B%22%20vertex%3D%221%22%20parent%3D%221%22%3E%3CmxGeometry%20x%3D%22850%22%20y%3D%22365%22%20width%3D%2230%22%20height%3D%2230%22%20as%3D%22geometry%22%2F%3E%3C%2FmxCell%3E%3C%2Froot%3E%3C%2FmxGraphModel%3E&lt;/span&gt;" style="ellipse;whiteSpace=wrap;html=1;aspect=fixed;" parent="1" vertex="1">
          <mxGeometry x="930" y="365" width="30" height="30" as="geometry" />
        </mxCell>
        <mxCell id="XAS8zitCqWI3PSzufVN--4" value="3" style="ellipse;whiteSpace=wrap;html=1;aspect=fixed;" parent="1" vertex="1">
          <mxGeometry x="930" y="420" width="30" height="30" as="geometry" />
        </mxCell>
        <mxCell id="XAS8zitCqWI3PSzufVN--6" value="4" style="ellipse;whiteSpace=wrap;html=1;aspect=fixed;" parent="1" vertex="1">
          <mxGeometry x="1010" y="365" width="30" height="30" as="geometry" />
        </mxCell>
        <mxCell id="XAS8zitCqWI3PSzufVN--7" value="5" style="ellipse;whiteSpace=wrap;html=1;aspect=fixed;" parent="1" vertex="1">
          <mxGeometry x="850" y="480" width="30" height="30" as="geometry" />
        </mxCell>
        <mxCell id="XAS8zitCqWI3PSzufVN--9" value="6" style="ellipse;whiteSpace=wrap;html=1;aspect=fixed;" parent="1" vertex="1">
          <mxGeometry x="930" y="480" width="30" height="30" as="geometry" />
        </mxCell>
        <mxCell id="XAS8zitCqWI3PSzufVN--10" value="7" style="ellipse;whiteSpace=wrap;html=1;aspect=fixed;" parent="1" vertex="1">
          <mxGeometry x="1010" y="480" width="30" height="30" as="geometry" />
        </mxCell>
        <mxCell id="XAS8zitCqWI3PSzufVN--11" value="" style="endArrow=none;html=1;rounded=0;exitX=1;exitY=0.5;exitDx=0;exitDy=0;entryX=0;entryY=0.5;entryDx=0;entryDy=0;" parent="1" source="XAS8zitCqWI3PSzufVN--1" target="XAS8zitCqWI3PSzufVN--3" edge="1">
          <mxGeometry width="50" height="50" relative="1" as="geometry">
            <mxPoint x="720" y="450" as="sourcePoint" />
            <mxPoint x="770" y="400" as="targetPoint" />
          </mxGeometry>
        </mxCell>
        <mxCell id="XAS8zitCqWI3PSzufVN--12" value="" style="endArrow=none;html=1;rounded=0;exitX=1;exitY=0.5;exitDx=0;exitDy=0;entryX=0;entryY=0.5;entryDx=0;entryDy=0;" parent="1" source="XAS8zitCqWI3PSzufVN--1" target="XAS8zitCqWI3PSzufVN--4" edge="1">
          <mxGeometry width="50" height="50" relative="1" as="geometry">
            <mxPoint x="890" y="415" as="sourcePoint" />
            <mxPoint x="940" y="390" as="targetPoint" />
          </mxGeometry>
        </mxCell>
        <mxCell id="XAS8zitCqWI3PSzufVN--13" value="" style="endArrow=none;html=1;rounded=0;exitX=1;exitY=0.5;exitDx=0;exitDy=0;entryX=0;entryY=0.5;entryDx=0;entryDy=0;" parent="1" source="XAS8zitCqWI3PSzufVN--3" target="XAS8zitCqWI3PSzufVN--6" edge="1">
          <mxGeometry width="50" height="50" relative="1" as="geometry">
            <mxPoint x="890" y="415" as="sourcePoint" />
            <mxPoint x="940" y="390" as="targetPoint" />
          </mxGeometry>
        </mxCell>
        <mxCell id="XAS8zitCqWI3PSzufVN--14" value="" style="endArrow=none;html=1;rounded=0;exitX=1;exitY=0.5;exitDx=0;exitDy=0;entryX=0;entryY=0.5;entryDx=0;entryDy=0;" parent="1" edge="1">
          <mxGeometry width="50" height="50" relative="1" as="geometry">
            <mxPoint x="880" y="494.5" as="sourcePoint" />
            <mxPoint x="930" y="494.5" as="targetPoint" />
          </mxGeometry>
        </mxCell>
        <mxCell id="XAS8zitCqWI3PSzufVN--15" value="" style="endArrow=none;html=1;rounded=0;exitX=1;exitY=0.5;exitDx=0;exitDy=0;entryX=0;entryY=0.5;entryDx=0;entryDy=0;" parent="1" edge="1">
          <mxGeometry width="50" height="50" relative="1" as="geometry">
            <mxPoint x="960" y="494.5" as="sourcePoint" />
            <mxPoint x="1010" y="494.5" as="targetPoint" />
          </mxGeometry>
        </mxCell>
        <mxCell id="L2HO2ShrbI7bbIs19OLC-1" value="6" style="ellipse;whiteSpace=wrap;html=1;aspect=fixed;" parent="1" vertex="1">
          <mxGeometry x="570" y="870" width="30" height="30" as="geometry" />
        </mxCell>
        <mxCell id="L2HO2ShrbI7bbIs19OLC-2" value="" style="endArrow=classic;html=1;rounded=0;exitX=1;exitY=0;exitDx=0;exitDy=0;entryX=0;entryY=0.5;entryDx=0;entryDy=0;" parent="1" source="L2HO2ShrbI7bbIs19OLC-1" target="L2HO2ShrbI7bbIs19OLC-3" edge="1">
          <mxGeometry width="50" height="50" relative="1" as="geometry">
            <mxPoint x="840" y="690" as="sourcePoint" />
            <mxPoint x="890" y="640" as="targetPoint" />
          </mxGeometry>
        </mxCell>
        <mxCell id="L2HO2ShrbI7bbIs19OLC-3" value="5" style="ellipse;whiteSpace=wrap;html=1;aspect=fixed;" parent="1" vertex="1">
          <mxGeometry x="640" y="840" width="30" height="30" as="geometry" />
        </mxCell>
        <mxCell id="L2HO2ShrbI7bbIs19OLC-4" value="7" style="ellipse;whiteSpace=wrap;html=1;aspect=fixed;" parent="1" vertex="1">
          <mxGeometry x="640" y="910" width="30" height="30" as="geometry" />
        </mxCell>
        <mxCell id="L2HO2ShrbI7bbIs19OLC-5" value="" style="endArrow=classic;html=1;rounded=0;exitX=1;exitY=1;exitDx=0;exitDy=0;entryX=0;entryY=0.5;entryDx=0;entryDy=0;" parent="1" source="L2HO2ShrbI7bbIs19OLC-1" target="L2HO2ShrbI7bbIs19OLC-4" edge="1">
          <mxGeometry width="50" height="50" relative="1" as="geometry">
            <mxPoint x="606" y="884" as="sourcePoint" />
            <mxPoint x="650" y="865" as="targetPoint" />
          </mxGeometry>
        </mxCell>
        <mxCell id="L2HO2ShrbI7bbIs19OLC-6" value="5" style="ellipse;whiteSpace=wrap;html=1;aspect=fixed;" parent="1" vertex="1">
          <mxGeometry x="760" y="870" width="30" height="30" as="geometry" />
        </mxCell>
        <mxCell id="L2HO2ShrbI7bbIs19OLC-7" value="" style="endArrow=classic;html=1;rounded=0;exitX=1;exitY=0.5;exitDx=0;exitDy=0;entryX=0;entryY=0.5;entryDx=0;entryDy=0;" parent="1" source="L2HO2ShrbI7bbIs19OLC-6" target="L2HO2ShrbI7bbIs19OLC-8" edge="1">
          <mxGeometry width="50" height="50" relative="1" as="geometry">
            <mxPoint x="820" y="890" as="sourcePoint" />
            <mxPoint x="870" y="840" as="targetPoint" />
          </mxGeometry>
        </mxCell>
        <mxCell id="L2HO2ShrbI7bbIs19OLC-8" value="7" style="ellipse;whiteSpace=wrap;html=1;aspect=fixed;" parent="1" vertex="1">
          <mxGeometry x="880" y="870" width="30" height="30" as="geometry" />
        </mxCell>
        <mxCell id="L2HO2ShrbI7bbIs19OLC-9" value="1" style="ellipse;whiteSpace=wrap;html=1;aspect=fixed;strokeWidth=2;fontFamily=Tahoma;spacingBottom=4;spacingRight=2;strokeColor=#d3d3d3;" parent="1" vertex="1">
          <mxGeometry x="540" y="840" width="20" height="20" as="geometry" />
        </mxCell>
        <mxCell id="L2HO2ShrbI7bbIs19OLC-10" value="2" style="ellipse;whiteSpace=wrap;html=1;aspect=fixed;strokeWidth=2;fontFamily=Tahoma;spacingBottom=4;spacingRight=2;strokeColor=#d3d3d3;" parent="1" vertex="1">
          <mxGeometry x="760" y="840" width="20" height="20" as="geometry" />
        </mxCell>
      </root>
    </mxGraphModel>
  </diagram>
  <diagram id="o9leWeXeLC9HOlFWaXY3" name="Page-2">
    <mxGraphModel dx="2250" dy="1928" grid="1" gridSize="10" guides="1" tooltips="1" connect="1" arrows="1" fold="1" page="1" pageScale="1" pageWidth="850" pageHeight="1100" math="0" shadow="0">
      <root>
        <mxCell id="0" />
        <mxCell id="1" parent="0" />
        <mxCell id="Owc89_2biQr-1OHpD78l-2" value="Thiết kế 1 hệ thống video-hosting:&lt;br&gt;1) Hỗ trợ khách hàng host các video của khóa học của họ (OK)&lt;div&gt;2) Cho phép upload nhiều file video (có cả video file lớn)&lt;/div&gt;&lt;div&gt;3) Có thể transcode video thành nhiều resolution (độ phân giải) (pending....)&lt;/div&gt;&lt;div&gt;4) Có thể streaming video đến nhiều người học cùng lúc&lt;/div&gt;&lt;div&gt;&lt;br&gt;&lt;/div&gt;&lt;div&gt;*** Min: 1000 người dùng truy cập đồng thời vào 1 video&lt;/div&gt;" style="text;html=1;align=left;verticalAlign=top;whiteSpace=wrap;rounded=0;" parent="1" vertex="1">
          <mxGeometry x="-60" y="-30" width="280" height="220" as="geometry" />
        </mxCell>
        <mxCell id="Owc89_2biQr-1OHpD78l-3" value="User" style="shape=umlActor;verticalLabelPosition=bottom;verticalAlign=top;html=1;outlineConnect=0;" parent="1" vertex="1">
          <mxGeometry x="80" y="360" width="30" height="60" as="geometry" />
        </mxCell>
        <mxCell id="Owc89_2biQr-1OHpD78l-4" value="User_1" style="shape=umlActor;verticalLabelPosition=bottom;verticalAlign=top;html=1;outlineConnect=0;" parent="1" vertex="1">
          <mxGeometry x="80" y="490" width="30" height="60" as="geometry" />
        </mxCell>
        <mxCell id="Owc89_2biQr-1OHpD78l-5" value="User" style="shape=umlActor;verticalLabelPosition=bottom;verticalAlign=top;html=1;outlineConnect=0;" parent="1" vertex="1">
          <mxGeometry x="80" y="630" width="30" height="60" as="geometry" />
        </mxCell>
        <mxCell id="Owc89_2biQr-1OHpD78l-9" value="_2" style="text;html=1;align=center;verticalAlign=middle;resizable=0;points=[];autosize=1;strokeColor=none;fillColor=none;" parent="1" vertex="1">
          <mxGeometry x="90" y="688" width="40" height="30" as="geometry" />
        </mxCell>
        <mxCell id="Owc89_2biQr-1OHpD78l-10" value="FE&lt;div&gt;(Service)&lt;/div&gt;" style="whiteSpace=wrap;html=1;aspect=fixed;" parent="1" vertex="1">
          <mxGeometry x="385" y="480" width="80" height="80" as="geometry" />
        </mxCell>
        <mxCell id="Owc89_2biQr-1OHpD78l-12" value="Load_balance" style="whiteSpace=wrap;html=1;aspect=fixed;" parent="1" vertex="1">
          <mxGeometry x="220" y="480" width="80" height="80" as="geometry" />
        </mxCell>
        <mxCell id="Owc89_2biQr-1OHpD78l-14" value="Back-end&lt;br&gt;(service)" style="whiteSpace=wrap;html=1;aspect=fixed;" parent="1" vertex="1">
          <mxGeometry x="930" y="480" width="80" height="80" as="geometry" />
        </mxCell>
        <mxCell id="Owc89_2biQr-1OHpD78l-15" value="AWS/Azure&lt;br&gt;(Store video/image)" style="ellipse;shape=cloud;whiteSpace=wrap;html=1;" parent="1" vertex="1">
          <mxGeometry x="1250" y="50" width="220" height="90" as="geometry" />
        </mxCell>
        <mxCell id="Owc89_2biQr-1OHpD78l-16" value="DB" style="shape=cylinder3;whiteSpace=wrap;html=1;boundedLbl=1;backgroundOutline=1;size=15;" parent="1" vertex="1">
          <mxGeometry x="1355" y="470" width="60" height="80" as="geometry" />
        </mxCell>
        <mxCell id="Owc89_2biQr-1OHpD78l-18" value="video_url / image_url" style="text;html=1;align=center;verticalAlign=middle;whiteSpace=wrap;rounded=0;" parent="1" vertex="1">
          <mxGeometry x="1395" y="450" width="60" height="30" as="geometry" />
        </mxCell>
        <mxCell id="Owc89_2biQr-1OHpD78l-19" value="" style="endArrow=classic;html=1;rounded=0;exitX=1;exitY=0.3333333333333333;exitDx=0;exitDy=0;exitPerimeter=0;entryX=0;entryY=0.25;entryDx=0;entryDy=0;" parent="1" source="Owc89_2biQr-1OHpD78l-3" target="Owc89_2biQr-1OHpD78l-12" edge="1">
          <mxGeometry width="50" height="50" relative="1" as="geometry">
            <mxPoint x="500" y="440" as="sourcePoint" />
            <mxPoint x="550" y="390" as="targetPoint" />
          </mxGeometry>
        </mxCell>
        <mxCell id="Owc89_2biQr-1OHpD78l-20" value="" style="endArrow=classic;html=1;rounded=0;" parent="1" source="Owc89_2biQr-1OHpD78l-4" target="Owc89_2biQr-1OHpD78l-12" edge="1">
          <mxGeometry width="50" height="50" relative="1" as="geometry">
            <mxPoint x="500" y="440" as="sourcePoint" />
            <mxPoint x="550" y="390" as="targetPoint" />
          </mxGeometry>
        </mxCell>
        <mxCell id="Owc89_2biQr-1OHpD78l-21" value="" style="endArrow=classic;html=1;rounded=0;exitX=1;exitY=0.3333333333333333;exitDx=0;exitDy=0;exitPerimeter=0;entryX=0;entryY=0.75;entryDx=0;entryDy=0;" parent="1" source="Owc89_2biQr-1OHpD78l-5" target="Owc89_2biQr-1OHpD78l-12" edge="1">
          <mxGeometry width="50" height="50" relative="1" as="geometry">
            <mxPoint x="500" y="440" as="sourcePoint" />
            <mxPoint x="550" y="390" as="targetPoint" />
          </mxGeometry>
        </mxCell>
        <mxCell id="Owc89_2biQr-1OHpD78l-22" value="DNS" style="ellipse;shape=cloud;whiteSpace=wrap;html=1;" parent="1" vertex="1">
          <mxGeometry x="280" y="170" width="120" height="80" as="geometry" />
        </mxCell>
        <mxCell id="Owc89_2biQr-1OHpD78l-23" value="" style="endArrow=classic;html=1;rounded=0;" parent="1" target="Owc89_2biQr-1OHpD78l-22" edge="1">
          <mxGeometry width="50" height="50" relative="1" as="geometry">
            <mxPoint x="110" y="380" as="sourcePoint" />
            <mxPoint x="160" y="330" as="targetPoint" />
          </mxGeometry>
        </mxCell>
        <mxCell id="Owc89_2biQr-1OHpD78l-24" value="Host: abc.com" style="edgeLabel;html=1;align=center;verticalAlign=middle;resizable=0;points=[];" parent="Owc89_2biQr-1OHpD78l-23" vertex="1" connectable="0">
          <mxGeometry x="-0.0196" y="-2" relative="1" as="geometry">
            <mxPoint as="offset" />
          </mxGeometry>
        </mxCell>
        <mxCell id="Owc89_2biQr-1OHpD78l-25" value="" style="endArrow=classic;html=1;rounded=0;exitX=0.356;exitY=0.968;exitDx=0;exitDy=0;exitPerimeter=0;" parent="1" source="Owc89_2biQr-1OHpD78l-22" edge="1">
          <mxGeometry width="50" height="50" relative="1" as="geometry">
            <mxPoint x="500" y="440" as="sourcePoint" />
            <mxPoint x="130" y="380" as="targetPoint" />
          </mxGeometry>
        </mxCell>
        <mxCell id="Owc89_2biQr-1OHpD78l-29" value="ip_adress" style="edgeLabel;html=1;align=center;verticalAlign=middle;resizable=0;points=[];" parent="Owc89_2biQr-1OHpD78l-25" vertex="1" connectable="0">
          <mxGeometry x="0.2949" relative="1" as="geometry">
            <mxPoint as="offset" />
          </mxGeometry>
        </mxCell>
        <mxCell id="Owc89_2biQr-1OHpD78l-26" value="ip: 128.0.0.2&lt;div&gt;port: 8889&lt;/div&gt;" style="text;html=1;align=center;verticalAlign=middle;whiteSpace=wrap;rounded=0;" parent="1" vertex="1">
          <mxGeometry x="425" y="450" width="95" height="30" as="geometry" />
        </mxCell>
        <mxCell id="Owc89_2biQr-1OHpD78l-27" value="ip: 128.0.0.3&lt;div&gt;port: 8889&lt;/div&gt;" style="text;html=1;align=center;verticalAlign=middle;whiteSpace=wrap;rounded=0;" parent="1" vertex="1">
          <mxGeometry x="952.5" y="450" width="95" height="30" as="geometry" />
        </mxCell>
        <mxCell id="Owc89_2biQr-1OHpD78l-28" value="ip: 128.0.0.4&lt;div&gt;port: 8889&lt;/div&gt;" style="text;html=1;align=center;verticalAlign=middle;whiteSpace=wrap;rounded=0;" parent="1" vertex="1">
          <mxGeometry x="1405" y="495" width="95" height="30" as="geometry" />
        </mxCell>
        <mxCell id="Owc89_2biQr-1OHpD78l-30" value="" style="endArrow=classic;html=1;rounded=0;entryX=0;entryY=0.5;entryDx=0;entryDy=0;" parent="1" target="Owc89_2biQr-1OHpD78l-32" edge="1">
          <mxGeometry width="50" height="50" relative="1" as="geometry">
            <mxPoint x="300" y="510" as="sourcePoint" />
            <mxPoint x="350" y="460" as="targetPoint" />
          </mxGeometry>
        </mxCell>
        <mxCell id="Owc89_2biQr-1OHpD78l-31" value="FE&lt;div&gt;(Service)&lt;/div&gt;" style="whiteSpace=wrap;html=1;aspect=fixed;" parent="1" vertex="1">
          <mxGeometry x="385" y="638" width="80" height="80" as="geometry" />
        </mxCell>
        <mxCell id="Owc89_2biQr-1OHpD78l-32" value="FE&lt;div&gt;(Service)&lt;/div&gt;" style="whiteSpace=wrap;html=1;aspect=fixed;" parent="1" vertex="1">
          <mxGeometry x="385" y="320" width="80" height="80" as="geometry" />
        </mxCell>
        <mxCell id="Owc89_2biQr-1OHpD78l-33" value="" style="endArrow=classic;html=1;rounded=0;entryX=0;entryY=0.5;entryDx=0;entryDy=0;" parent="1" target="Owc89_2biQr-1OHpD78l-10" edge="1">
          <mxGeometry width="50" height="50" relative="1" as="geometry">
            <mxPoint x="310" y="520" as="sourcePoint" />
            <mxPoint x="395" y="370" as="targetPoint" />
          </mxGeometry>
        </mxCell>
        <mxCell id="Owc89_2biQr-1OHpD78l-34" value="" style="endArrow=classic;html=1;rounded=0;entryX=0;entryY=0.5;entryDx=0;entryDy=0;exitX=1;exitY=0.75;exitDx=0;exitDy=0;" parent="1" source="Owc89_2biQr-1OHpD78l-12" target="Owc89_2biQr-1OHpD78l-31" edge="1">
          <mxGeometry width="50" height="50" relative="1" as="geometry">
            <mxPoint x="320" y="530" as="sourcePoint" />
            <mxPoint x="395" y="530" as="targetPoint" />
          </mxGeometry>
        </mxCell>
        <mxCell id="Owc89_2biQr-1OHpD78l-36" value="- (GET) api_endpoint: /upload" style="text;html=1;align=center;verticalAlign=middle;whiteSpace=wrap;rounded=0;" parent="1" vertex="1">
          <mxGeometry x="942.5" y="560" width="130" height="30" as="geometry" />
        </mxCell>
        <mxCell id="Owc89_2biQr-1OHpD78l-38" value="Middleware" style="shape=umlLifeline;perimeter=lifelinePerimeter;whiteSpace=wrap;html=1;container=1;dropTarget=0;collapsible=0;recursiveResize=0;outlineConnect=0;portConstraint=eastwest;newEdgeStyle={&quot;curved&quot;:0,&quot;rounded&quot;:0};" parent="1" vertex="1">
          <mxGeometry x="730" y="280" width="100" height="410" as="geometry" />
        </mxCell>
        <mxCell id="Owc89_2biQr-1OHpD78l-39" value="Load_balance" style="whiteSpace=wrap;html=1;aspect=fixed;" parent="1" vertex="1">
          <mxGeometry x="580" y="480" width="80" height="80" as="geometry" />
        </mxCell>
        <mxCell id="Owc89_2biQr-1OHpD78l-40" value="Back-end&lt;br&gt;(service)" style="whiteSpace=wrap;html=1;aspect=fixed;" parent="1" vertex="1">
          <mxGeometry x="930" y="330" width="80" height="80" as="geometry" />
        </mxCell>
        <mxCell id="Owc89_2biQr-1OHpD78l-41" value="Back-end&lt;br&gt;(service)" style="whiteSpace=wrap;html=1;aspect=fixed;" parent="1" vertex="1">
          <mxGeometry x="932.5" y="638" width="80" height="80" as="geometry" />
        </mxCell>
        <mxCell id="Owc89_2biQr-1OHpD78l-43" value="" style="endArrow=classic;html=1;rounded=0;exitX=1;exitY=0.5;exitDx=0;exitDy=0;entryX=0;entryY=0.25;entryDx=0;entryDy=0;" parent="1" source="Owc89_2biQr-1OHpD78l-32" target="Owc89_2biQr-1OHpD78l-39" edge="1">
          <mxGeometry width="50" height="50" relative="1" as="geometry">
            <mxPoint x="630" y="400" as="sourcePoint" />
            <mxPoint x="680" y="350" as="targetPoint" />
          </mxGeometry>
        </mxCell>
        <mxCell id="Owc89_2biQr-1OHpD78l-54" value="call api_endpoint: (GET) /upload&lt;div&gt;- authorization (JWT)&lt;/div&gt;&lt;div&gt;- parameters: filename=${file_name}&lt;/div&gt;" style="edgeLabel;html=1;align=center;verticalAlign=middle;resizable=0;points=[];" parent="Owc89_2biQr-1OHpD78l-43" vertex="1" connectable="0">
          <mxGeometry x="-0.3505" y="2" relative="1" as="geometry">
            <mxPoint as="offset" />
          </mxGeometry>
        </mxCell>
        <mxCell id="Owc89_2biQr-1OHpD78l-44" value="" style="endArrow=classic;html=1;rounded=0;exitX=1;exitY=0.5;exitDx=0;exitDy=0;" parent="1" source="Owc89_2biQr-1OHpD78l-10" edge="1">
          <mxGeometry width="50" height="50" relative="1" as="geometry">
            <mxPoint x="475" y="370" as="sourcePoint" />
            <mxPoint x="580" y="520" as="targetPoint" />
          </mxGeometry>
        </mxCell>
        <mxCell id="Owc89_2biQr-1OHpD78l-45" value="ip: 128.0.0.2&lt;div&gt;port: 8888&lt;/div&gt;" style="text;html=1;align=center;verticalAlign=middle;whiteSpace=wrap;rounded=0;" parent="1" vertex="1">
          <mxGeometry x="420" y="290" width="95" height="30" as="geometry" />
        </mxCell>
        <mxCell id="Owc89_2biQr-1OHpD78l-46" value="ip: 128.0.0.2&lt;div&gt;port: 8880&lt;/div&gt;" style="text;html=1;align=center;verticalAlign=middle;whiteSpace=wrap;rounded=0;" parent="1" vertex="1">
          <mxGeometry x="425" y="608" width="95" height="30" as="geometry" />
        </mxCell>
        <mxCell id="Owc89_2biQr-1OHpD78l-47" value="ip: 128.0.0.3&lt;div&gt;port: 8888&lt;/div&gt;" style="text;html=1;align=center;verticalAlign=middle;whiteSpace=wrap;rounded=0;" parent="1" vertex="1">
          <mxGeometry x="970" y="300" width="95" height="30" as="geometry" />
        </mxCell>
        <mxCell id="Owc89_2biQr-1OHpD78l-48" value="ip: 128.0.0.3&lt;div&gt;port: 8880&lt;/div&gt;" style="text;html=1;align=center;verticalAlign=middle;whiteSpace=wrap;rounded=0;" parent="1" vertex="1">
          <mxGeometry x="962.5" y="608" width="95" height="30" as="geometry" />
        </mxCell>
        <mxCell id="Owc89_2biQr-1OHpD78l-49" value="" style="endArrow=classic;html=1;rounded=0;exitX=1;exitY=0.5;exitDx=0;exitDy=0;entryX=0;entryY=0.75;entryDx=0;entryDy=0;" parent="1" source="Owc89_2biQr-1OHpD78l-31" target="Owc89_2biQr-1OHpD78l-39" edge="1">
          <mxGeometry width="50" height="50" relative="1" as="geometry">
            <mxPoint x="490" y="678" as="sourcePoint" />
            <mxPoint x="600" y="568" as="targetPoint" />
          </mxGeometry>
        </mxCell>
        <mxCell id="Owc89_2biQr-1OHpD78l-51" value="" style="endArrow=classic;html=1;rounded=0;exitX=1;exitY=0.5;exitDx=0;exitDy=0;" parent="1" source="Owc89_2biQr-1OHpD78l-39" target="Owc89_2biQr-1OHpD78l-52" edge="1">
          <mxGeometry width="50" height="50" relative="1" as="geometry">
            <mxPoint x="475" y="370" as="sourcePoint" />
            <mxPoint x="590" y="510" as="targetPoint" />
          </mxGeometry>
        </mxCell>
        <mxCell id="Owc89_2biQr-1OHpD78l-52" value="" style="shape=partialRectangle;whiteSpace=wrap;html=1;bottom=1;right=1;left=1;top=0;fillColor=none;routingCenterX=-0.5;direction=south;" parent="1" vertex="1">
          <mxGeometry x="870" y="370" width="60" height="310" as="geometry" />
        </mxCell>
        <mxCell id="Owc89_2biQr-1OHpD78l-55" value="ip: 128.0.0.5&lt;div&gt;port: 8889&lt;/div&gt;" style="text;html=1;align=center;verticalAlign=middle;whiteSpace=wrap;rounded=0;" parent="1" vertex="1">
          <mxGeometry x="1390" y="40" width="95" height="30" as="geometry" />
        </mxCell>
        <mxCell id="Owc89_2biQr-1OHpD78l-57" value="" style="shape=partialRectangle;whiteSpace=wrap;html=1;bottom=1;right=1;left=1;top=0;fillColor=none;routingCenterX=-0.5;direction=north;" parent="1" vertex="1">
          <mxGeometry x="1012.5" y="360" width="60" height="320" as="geometry" />
        </mxCell>
        <mxCell id="Owc89_2biQr-1OHpD78l-59" value="" style="edgeStyle=elbowEdgeStyle;elbow=horizontal;endArrow=classic;html=1;curved=0;rounded=0;endSize=8;startSize=8;entryX=0.16;entryY=0.55;entryDx=0;entryDy=0;entryPerimeter=0;" parent="1" target="Owc89_2biQr-1OHpD78l-15" edge="1">
          <mxGeometry width="50" height="50" relative="1" as="geometry">
            <mxPoint x="1072.5" y="520" as="sourcePoint" />
            <mxPoint x="1122.5" y="470" as="targetPoint" />
          </mxGeometry>
        </mxCell>
        <mxCell id="Owc89_2biQr-1OHpD78l-61" value="send request to cloud via https&lt;div&gt;- GET&lt;/div&gt;&lt;div&gt;- file&lt;/div&gt;" style="edgeLabel;html=1;align=center;verticalAlign=middle;resizable=0;points=[];" parent="Owc89_2biQr-1OHpD78l-59" vertex="1" connectable="0">
          <mxGeometry x="-0.2482" y="-1" relative="1" as="geometry">
            <mxPoint y="1" as="offset" />
          </mxGeometry>
        </mxCell>
        <mxCell id="Owc89_2biQr-1OHpD78l-60" value="Middleware" style="shape=umlLifeline;perimeter=lifelinePerimeter;whiteSpace=wrap;html=1;container=1;dropTarget=0;collapsible=0;recursiveResize=0;outlineConnect=0;portConstraint=eastwest;newEdgeStyle={&quot;curved&quot;:0,&quot;rounded&quot;:0};" parent="1" vertex="1">
          <mxGeometry x="1175" y="-100" width="100" height="410" as="geometry" />
        </mxCell>
        <mxCell id="Owc89_2biQr-1OHpD78l-62" value="- Business Logic:&lt;div&gt;1 video/image -&amp;gt; 1 key&lt;br&gt;&lt;div&gt;+ filter filename_arr to get unique file_name&lt;/div&gt;&lt;/div&gt;&lt;div&gt;+ For each unique file_name -&amp;gt; generate uuid_file_name&lt;/div&gt;" style="text;html=1;align=left;verticalAlign=middle;whiteSpace=wrap;rounded=0;" parent="1" vertex="1">
          <mxGeometry x="1210" y="620" width="290" height="90" as="geometry" />
        </mxCell>
        <mxCell id="Owc89_2biQr-1OHpD78l-63" value="video -&amp;gt; [0,1]&lt;div&gt;- resolution càng lớn -&amp;gt; chất lượng hình ảnh / chất lượng video&lt;/div&gt;&lt;div&gt;image -&amp;gt; 2D&lt;/div&gt;" style="rounded=0;whiteSpace=wrap;html=1;" parent="1" vertex="1">
          <mxGeometry x="385" y="-20" width="215" height="60" as="geometry" />
        </mxCell>
        <mxCell id="Owc89_2biQr-1OHpD78l-64" value="Lambda&lt;div&gt;(library)&lt;/div&gt;" style="whiteSpace=wrap;html=1;aspect=fixed;" parent="1" vertex="1">
          <mxGeometry x="932.5" y="55" width="80" height="80" as="geometry" />
        </mxCell>
        <mxCell id="Owc89_2biQr-1OHpD78l-65" value="" style="endArrow=classic;html=1;rounded=0;exitX=1;exitY=0.5;exitDx=0;exitDy=0;entryX=0;entryY=0.5;entryDx=0;entryDy=0;" parent="1" source="Owc89_2biQr-1OHpD78l-32" target="Owc89_2biQr-1OHpD78l-64" edge="1">
          <mxGeometry width="50" height="50" relative="1" as="geometry">
            <mxPoint x="650" y="320" as="sourcePoint" />
            <mxPoint x="700" y="270" as="targetPoint" />
          </mxGeometry>
        </mxCell>
        <mxCell id="Owc89_2biQr-1OHpD78l-66" value="Lambda&lt;div&gt;(library)&lt;/div&gt;" style="whiteSpace=wrap;html=1;aspect=fixed;" parent="1" vertex="1">
          <mxGeometry x="1430" y="100" width="80" height="80" as="geometry" />
        </mxCell>
        <mxCell id="Owc89_2biQr-1OHpD78l-68" value="- index.js&lt;div&gt;&amp;nbsp; - resize_image_or_video(x,y,x_original,y_original);&lt;br&gt;&lt;span style=&quot;white-space: pre;&quot;&gt;&#x9;&lt;/span&gt;call_algothirm()&lt;br&gt;&lt;/div&gt;" style="text;html=1;align=left;verticalAlign=top;whiteSpace=wrap;rounded=0;" parent="1" vertex="1">
          <mxGeometry x="952.5" y="-50" width="297.5" height="150" as="geometry" />
        </mxCell>
        <mxCell id="Owc89_2biQr-1OHpD78l-70" value="S3" style="shape=cylinder3;whiteSpace=wrap;html=1;boundedLbl=1;backgroundOutline=1;size=15;" parent="1" vertex="1">
          <mxGeometry x="1680" y="-90" width="60" height="80" as="geometry" />
        </mxCell>
        <mxCell id="Owc89_2biQr-1OHpD78l-71" value="" style="endArrow=classic;html=1;rounded=0;exitX=1;exitY=0.5;exitDx=0;exitDy=0;entryX=0;entryY=0;entryDx=0;entryDy=52.5;entryPerimeter=0;" parent="1" source="Owc89_2biQr-1OHpD78l-66" target="Owc89_2biQr-1OHpD78l-70" edge="1">
          <mxGeometry width="50" height="50" relative="1" as="geometry">
            <mxPoint x="1560" y="110" as="sourcePoint" />
            <mxPoint x="1610" y="60" as="targetPoint" />
          </mxGeometry>
        </mxCell>
        <mxCell id="Owc89_2biQr-1OHpD78l-73" value="" style="endArrow=classic;html=1;rounded=0;exitX=0.5;exitY=1;exitDx=0;exitDy=0;" parent="1" source="Owc89_2biQr-1OHpD78l-64" edge="1">
          <mxGeometry width="50" height="50" relative="1" as="geometry">
            <mxPoint x="1090" y="290" as="sourcePoint" />
            <mxPoint x="973" y="330" as="targetPoint" />
          </mxGeometry>
        </mxCell>
        <mxCell id="Owc89_2biQr-1OHpD78l-74" value="Trigger_envet&lt;br&gt;- upload_sucess" style="edgeLabel;html=1;align=center;verticalAlign=middle;resizable=0;points=[];" parent="Owc89_2biQr-1OHpD78l-73" vertex="1" connectable="0">
          <mxGeometry x="-0.139" y="-1" relative="1" as="geometry">
            <mxPoint x="46" y="-10" as="offset" />
          </mxGeometry>
        </mxCell>
        <mxCell id="Owc89_2biQr-1OHpD78l-77" value="" style="endArrow=classic;html=1;rounded=0;exitX=0.542;exitY=1.056;exitDx=0;exitDy=0;exitPerimeter=0;entryX=0;entryY=0.5;entryDx=0;entryDy=0;entryPerimeter=0;" parent="1" source="Owc89_2biQr-1OHpD78l-57" target="Owc89_2biQr-1OHpD78l-16" edge="1">
          <mxGeometry width="50" height="50" relative="1" as="geometry">
            <mxPoint x="1090" y="290" as="sourcePoint" />
            <mxPoint x="1140" y="240" as="targetPoint" />
          </mxGeometry>
        </mxCell>
        <mxCell id="Owc89_2biQr-1OHpD78l-78" value="save_urls" style="edgeLabel;html=1;align=center;verticalAlign=middle;resizable=0;points=[];" parent="Owc89_2biQr-1OHpD78l-77" vertex="1" connectable="0">
          <mxGeometry x="0.236" y="-5" relative="1" as="geometry">
            <mxPoint as="offset" />
          </mxGeometry>
        </mxCell>
      </root>
    </mxGraphModel>
  </diagram>
</mxfile>
